<svg width="29" height="28" viewBox="0 0 29 28" fill="none" xmlns="http://www.w3.org/2000/svg">
<path fill-rule="evenodd" clip-rule="evenodd" d="M1.83009 0.449999C1.53009 -0.0100012 0.899961 -0.139908 0.449961 0.170092C-0.0100388 0.470092 -0.140068 1.1001 0.169932 1.5501L2.08009 4.42009L4.96998 15.2601C5.70998 18.0501 8.2499 20 11.1399 20H24C24.55 20 25 19.55 25 19C25 18.45 24.55 18 24 18H11.1399C9.5699 18 8.15013 17.16 7.37013 15.86L24.27 14.1401C25.58 14.0101 26.6399 13.0501 26.9099 11.7701L27.98 6.61003C28.37 4.75003 26.94 3.00005 25.04 3.00005H3.54005L1.83009 0.449999ZM6.67994 13.9201L4.30006 5.00005H25.04C25.68 5.00005 26.15 5.58 26.02 6.2L24.95 11.36C24.86 11.79 24.5101 12.1101 24.0701 12.1501L6.67994 13.9201Z" fill="#fff"/>
<path fill-rule="evenodd" clip-rule="evenodd" d="M6 25C6 23.34 7.34 22 9 22C10.66 22 12 23.34 12 25C12 26.66 10.66 28 9 28C7.34 28 6 26.66 6 25ZM9 24C8.45 24 8 24.45 8 25C8 25.55 8.45 26 9 26C9.55 26 10 25.55 10 25C10 24.45 9.55 24 9 24Z" fill="#fff"/>
<path fill-rule="evenodd" clip-rule="evenodd" d="M19 25C19 23.34 20.34 22 22 22C23.66 22 25 23.34 25 25C25 26.66 23.66 28 22 28C20.34 28 19 26.66 19 25ZM22 24C21.45 24 21 24.45 21 25C21 25.55 21.45 26 22 26C22.55 26 23 25.55 23 25C23 24.45 22.55 24 22 24Z" fill="#fff"/>
</svg>
