<svg width="398" height="398" viewBox="0 0 398 398" fill="none" xmlns="http://www.w3.org/2000/svg">
<path d="M290.853 245.977L374.942 328.898C387.597 341.377 387.739 361.751 375.26 374.406V374.406C362.782 387.061 342.407 387.203 329.752 374.724L245.663 291.803L290.853 245.977Z" fill="white"/>
<path d="M320 160C320 248.366 248.366 320 160 320C71.6344 320 0 248.366 0 160C0 71.6344 71.6344 0 160 0C248.366 0 320 71.6344 320 160ZM47.7435 160C47.7435 221.998 98.0025 272.256 160 272.256C221.998 272.256 272.256 221.998 272.256 160C272.256 98.0025 221.998 47.7435 160 47.7435C98.0025 47.7435 47.7435 98.0025 47.7435 160Z" fill="white"/>
</svg>
